<!-- Shared SVG Icon Sprite -->
<svg xmlns="http://www.w3.org/2000/svg" style="display: none">
  <!-- Shield Icon -->
  <symbol id="icon-shield" viewBox="0 0 24 24" fill="none" stroke="currentColor" stroke-width="1.5" stroke-linecap="round" stroke-linejoin="round">
    <path d="M12 3.75l6.328 2.831A49.255 49.255 0 0121.75 18.628A9.012 9.012 0 0112 20.248a9.012 9.012 0 01-9.75-1.62 49.255 49.255 0 012.672-12.047L12 3.75z" />
  </symbol>

  <!-- Heart Pulse Icon -->
  <symbol id="icon-heart-pulse" viewBox="0 0 24 24" fill="none" stroke="currentColor" stroke-width="1.5" stroke-linecap="round" stroke-linejoin="round">
    <path d="M21 8.25c0-2.485-2.099-4.5-4.688-4.5C14.531 3.75 12 6 12 6s-2.531-2.25-4.313-2.25C5.1 3.75 3 5.765 3 8.25 3 15.438 12 20.25 12 20.25s9-4.812 9-12z" />
    <path d="M3.5 12.5h4l2-3.5 3 7l2-3.5h6" stroke-width="1.25" />
  </symbol>

  <!-- Brain / AI Icon -->
  <symbol id="icon-brain" viewBox="0 0 24 24" fill="none" stroke="currentColor" stroke-width="1.5" stroke-linecap="round" stroke-linejoin="round">
    <path d="M9.313 7.15a4.8 4.8 0 014.955-.32M16.708 8.738a3.25 3.25 0 011.21 4.127M6.26 12.665a3.65 3.65 0 00-1.21 2.674M6 20a3.25 3.25 0 003.25-3.25M12 12v8.25M15.75 20a3.25 3.25 0 01-3.25-3.25M9 4.3a3.25 3.25 0 016.2.75M15.5 7.8a3.25 3.25 0 012.457 4.15M8.25 8.625A3.25 3.25 0 005.5 12.375" />
  </symbol>

  <!-- Globe Icon -->
  <symbol id="icon-globe" viewBox="0 0 24 24" fill="none" stroke="currentColor" stroke-width="1.5" stroke-linecap="round" stroke-linejoin="round">
    <path d="M12 21a9 9 0 100-18 9 9 0 000 18zM3.6 9h16.8M3.6 15h16.8M12 3 a14.5 14.5 0 014 9a14.5 14.5 0 01-4 9 a14.5 14.5 0 01-4-9a14.5 14.5 0 014-9z" />
  </symbol>
</svg>