<svg xmlns="http://www.w3.org/2000/svg" xmlns:xlink="http://www.w3.org/1999/xlink" aria-hidden="true" role="img" class="iconify iconify--logos" width="35.94" height="32" preserveAspectRatio="xMidYMid meet" viewBox="0 0 256 228"><defs><linearGradient id="IconifyId1813088fe1fbc01fb466" x1="158.957" x2="158.957" y1="40.6" y2="136.512" gradientUnits="userSpaceOnUse"><stop stop-color="#29D"/><stop offset="1" stop-color="#26B"/></linearGradient><linearGradient id="IconifyId1813088fe1fbc01fb467" x1="133.757" x2="254.267" y1="182.921" y2="112.41" gradientUnits="userSpaceOnUse"><stop stop-color="#29D"/><stop offset="1" stop-color="#26B"/></linearGradient><linearGradient id="IconifyId1813088fe1fbc01fb468" x1=".579" x2="110.562" y1="112.41" y2="182.921" gradientUnits="userSpaceOnUse"><stop stop-color="#29D"/><stop offset="1" stop-color="#26B"/></linearGradient></defs><path fill="url(#IconifyId1813088fe1fbc01fb466)" d="M255.621 40.6v126.512l-76.809-20.14V62.45l76.81-21.85z"/><path fill="url(#IconifyId1813088fe1fbc01fb467)" d="M128.435 228.042l.284-123.57L255.88 167.09l-127.446 60.952z"/><path fill="url(#IconifyId1813088fe1fbc01fb468)" d="M0 167.09l127.161-62.618l.284 123.57L0 167.09z"/><path fill="#26B" d="M0 40.6l128.566 64.83l127.055-64.83L127.236 0h-3.23L0 40.6z"/><path fill="#24B" d="M127.445 106.472L0 40.6h255.621z"/><path fill="#23B" d="M127.445 106.472l-1.25 73.47l-49.5-15.719L6.55 95.818L0 117.16l.009-50.09l70.911 17.818l56.525 21.584z"/><path fill-opacity=".3" d="M255.621 40.6L128.566 105.43l-1 54.968L97 148.37l-1.37.37L0 120.554l.009-72.829L127.236 0h3.23L127.709 0H0.009v120.554L0 167.09l127.161-62.618l.284 123.57L255.886 167.09V40.601h-.265z" fill="url(#paint0_linear)"/></svg>