<svg xmlns="http://www.w3.org/2000/svg" xmlns:xlink="http://www.w3.org/1999/xlink" aria-hidden="true" role="img" class="iconify iconify--logos" width="31.88" height="32" preserveAspectRatio="xMidYMid meet" viewBox="0 0 256 257"><defs><linearGradient id="IconifyId1813088fe1fbc01fb466" x1=".838" x2="1" y1="0" y2=".302"><stop offset="0" stop-color="#41D1FF"/><stop offset="1" stop-color="#278DFF"/></linearGradient><linearGradient id="IconifyId1813088fe1fbc01fb467" x1=".633" x2=".36" y1=".06" y2=".91"><stop offset="0" stop-color="#FFAD51"/><stop offset="1" stop-color="#FF6622"/></linearGradient></defs><path fill="url(#IconifyId1813088fe1fbc01fb466)" d="M255.153 37.938L134.197 252.976c-2.483 4.44-8.862 4.466-11.382.048L.875 37.958c-2.746-4.814 1.371-10.646 6.82s-9.853L228.01 28.641c5.526-1.053 9.654 4.81 7.143 9.297z"/><path fill="url(#IconifyId1813088fe1fbc01fb467)" d="M185.433.715L96.42 17.882a4.562 4.562 0 00-3.794 3.949l-7.55 88.532a4.562 4.562 0 004.532 4.922l36.622-4.309a2.28 2.28 0 012.537 2.652l-11.112 64.598a4.564 4.564 0 005.245 5.178l27.689-4.8a2.282 2.282 0 012.547 2.388l-16.508 81.058c-.776 3.812 4.08 6.312 6.442 3.32l1.55-1.962L80.56 25.227l0.02-0.02c1.702-3.246 6.058-7.22 11.025-6.246l96.448-17.824c5.217-1.062 8.722 4.98 5.919 9.49l-6.03 9.689 0.01 0.01z"/></svg>